<svg width="18" height="18" viewBox="0 0 18 18" fill="none" xmlns="http://www.w3.org/2000/svg">
<path fill-rule="evenodd" clip-rule="evenodd" d="M11.4304 14.6151L11.5057 14.1208L11.9878 10.9558L12.9764 11.1064L12.6735 13.0948C14.5717 11.3954 15.0876 8.54396 13.7631 6.24998C12.5662 4.17676 10.2224 3.17673 7.99417 3.59107L7.81135 2.60793C10.4432 2.11853 13.2137 3.29833 14.6292 5.74998C16.2067 8.4824 15.5749 11.8841 13.2881 13.8865L15.2403 14.1839L15.0898 15.1725L11.9247 14.6904L11.4304 14.6151ZM6.56959 3.38484L6.49431 3.87913L6.01225 7.04419L5.02365 6.89362L5.3265 4.90516C3.42835 6.60454 2.91243 9.45603 4.23686 11.75C5.43384 13.8232 7.77762 14.8233 10.0058 14.4089L10.1887 15.3921C7.55685 15.8815 4.7863 14.7017 3.37084 12.25C1.79327 9.51758 2.42506 6.11586 4.71192 4.11343L2.75965 3.81609L2.91022 2.82749L6.07529 3.30955L6.56959 3.38484Z" fill="white"/>
</svg>
